<svg xmlns="http://www.w3.org/2000/svg" viewBox="0 0 193 127.25"><defs><style>.cls-1,.cls-3,.cls-4,.cls-5{fill:none;}.cls-1,.cls-2,.cls-3,.cls-4,.cls-5,.cls-6{stroke:#000;stroke-miterlimit:10;}.cls-1,.cls-2,.cls-3,.cls-4{stroke-width:0.5px;}.cls-2,.cls-6{fill:#ddf4ba;}.cls-3{stroke-dasharray:3.01 3.01;}.cls-4{stroke-dasharray:2.96 2.96;}</style></defs><g id="Layer_2" data-name="Layer 2"><g id="Layer_1-2" data-name="Layer 1"><rect class="cls-1" x="4.92" y="51.5" width="37.83" height="17.5"/><path d="M9.71,65.82H8.42l3.73-10.18h1.28l3.74,10.18h-1.3l-3-8.57h-.08Zm.48-4H15.4v1.1H10.19Z"/><path d="M26.1,55.64V65.82H24.86V56.93H24.8l-2.48,1.65V57.33l2.54-1.69Z"/><path d="M29.3,65.9a.9.9,0,0,1-.9-.89.87.87,0,0,1,.27-.64.86.86,0,0,1,.63-.26.89.89,0,0,1,.89.9.83.83,0,0,1-.12.44.92.92,0,0,1-.32.33A.89.89,0,0,1,29.3,65.9Z"/><path d="M35.24,66a3,3,0,0,1-1.91-.61,3.82,3.82,0,0,1-1.21-1.79,9.71,9.71,0,0,1,0-5.65,3.84,3.84,0,0,1,1.22-1.79,3,3,0,0,1,1.9-.62,3,3,0,0,1,1.91.62,3.82,3.82,0,0,1,1.21,1.79,9.71,9.71,0,0,1,0,5.65,3.81,3.81,0,0,1-1.2,1.79A3,3,0,0,1,35.24,66Zm0-1.09A1.91,1.91,0,0,0,37,63.79a6.19,6.19,0,0,0,.62-3.06,7.76,7.76,0,0,0-.28-2.25,3.19,3.19,0,0,0-.81-1.42,1.81,1.81,0,0,0-1.26-.49,1.92,1.92,0,0,0-1.72,1.09,6.18,6.18,0,0,0-.62,3.07A8.15,8.15,0,0,0,33.17,63a3.11,3.11,0,0,0,.81,1.4A1.77,1.77,0,0,0,35.24,64.87Z"/><rect class="cls-2" x="46.92" y="51.5" width="37.83" height="17.5"/><path d="M53.26,65.82H52l3.74-10.18H57l3.74,10.18H59.43l-3-8.57H56.3Zm.48-4H59v1.1H53.74Z"/><path d="M69.65,55.64V65.82H68.41V56.93h-.06l-2.48,1.65V57.33l2.54-1.69Z"/><path d="M72.85,65.9A.9.9,0,0,1,72,65a.87.87,0,0,1,.27-.64.86.86,0,0,1,.63-.26.89.89,0,0,1,.63.26.86.86,0,0,1,.26.64.83.83,0,0,1-.12.44.92.92,0,0,1-.32.33A.89.89,0,0,1,72.85,65.9Z"/><path d="M78.2,55.64V65.82H77V56.93H76.9l-2.48,1.65V57.33L77,55.64Z"/><rect class="cls-3" x="0.25" y="45.5" width="89.5" height="29.5" rx="1.72"/><rect class="cls-2" x="107.92" y="51.5" width="37.83" height="17.5"/><path d="M112.74,65.82V55.64h3.56a3.76,3.76,0,0,1,1.75.36,2.51,2.51,0,0,1,1,1,2.75,2.75,0,0,1,.34,1.36,2.35,2.35,0,0,1-.23,1.09,1.8,1.8,0,0,1-.61.67,2.7,2.7,0,0,1-.81.37v.1a2,2,0,0,1,.94.33,2.41,2.41,0,0,1,.79.85,2.78,2.78,0,0,1,.32,1.37,2.71,2.71,0,0,1-.35,1.37,2.4,2.4,0,0,1-1.1,1,4.53,4.53,0,0,1-2,.36ZM114,60.11h2.29a2.37,2.37,0,0,0,1-.21,1.86,1.86,0,0,0,.71-.62,1.65,1.65,0,0,0,.27-.94,1.59,1.59,0,0,0-.47-1.14,2,2,0,0,0-1.48-.47H114Zm0,4.62h2.45a2.55,2.55,0,0,0,1.72-.47,1.51,1.51,0,0,0,.51-1.14,1.78,1.78,0,0,0-.27-1,1.91,1.91,0,0,0-.75-.71,2.44,2.44,0,0,0-1.15-.26H114Z"/><path d="M125.6,65.82v-.89L129,61.25c.39-.43.72-.81,1-1.13a3.9,3.9,0,0,0,.57-.9,2.3,2.3,0,0,0,.19-.9,1.71,1.71,0,0,0-.26-.93,1.64,1.64,0,0,0-.7-.6,2.28,2.28,0,0,0-1-.22,2,2,0,0,0-1,.25,1.69,1.69,0,0,0-.68.67,2.18,2.18,0,0,0-.23,1h-1.17a2.92,2.92,0,0,1,.41-1.57,2.83,2.83,0,0,1,1.12-1,3.42,3.42,0,0,1,1.61-.38,3.27,3.27,0,0,1,1.58.38,2.89,2.89,0,0,1,1.09,1,2.68,2.68,0,0,1,.39,1.42,3.19,3.19,0,0,1-.2,1.1,5.14,5.14,0,0,1-.7,1.19,19.89,19.89,0,0,1-1.37,1.59l-2.28,2.45v.08H132v1.09Z"/><path d="M135,65.9a.9.9,0,0,1,0-1.79.86.86,0,0,1,.63.26.87.87,0,0,1,.27.64.83.83,0,0,1-.12.44,1,1,0,0,1-.33.33A.84.84,0,0,1,135,65.9Z"/><path d="M140.3,55.64V65.82h-1.23V56.93H139l-2.49,1.65V57.33l2.55-1.69Z"/><rect class="cls-1" x="149.92" y="51.5" width="37.83" height="17.5"/><path d="M153.15,65.82V55.64h3.56a3.76,3.76,0,0,1,1.75.36,2.51,2.51,0,0,1,1,1,2.75,2.75,0,0,1,.34,1.36,2.35,2.35,0,0,1-.23,1.09,1.88,1.88,0,0,1-.61.67,2.7,2.7,0,0,1-.81.37v.1a2,2,0,0,1,.94.33,2.41,2.41,0,0,1,.79.85,2.78,2.78,0,0,1,.32,1.37,2.71,2.71,0,0,1-.35,1.37,2.4,2.4,0,0,1-1.1,1,4.53,4.53,0,0,1-1.95.36Zm1.23-5.71h2.29a2.37,2.37,0,0,0,1-.21,1.86,1.86,0,0,0,.71-.62,1.65,1.65,0,0,0,.27-.94,1.59,1.59,0,0,0-.47-1.14,2,2,0,0,0-1.48-.47h-2.33Zm0,4.62h2.45a2.55,2.55,0,0,0,1.72-.47,1.51,1.51,0,0,0,.51-1.14,1.78,1.78,0,0,0-.27-1,1.91,1.91,0,0,0-.75-.71,2.44,2.44,0,0,0-1.15-.26h-2.51Z"/><path d="M166,65.82v-.89l3.37-3.68c.39-.43.71-.81,1-1.13a4.72,4.72,0,0,0,.57-.9,2.3,2.3,0,0,0,.18-.9,1.71,1.71,0,0,0-.25-.93,1.64,1.64,0,0,0-.7-.6,2.28,2.28,0,0,0-1-.22,2,2,0,0,0-1,.25,1.69,1.69,0,0,0-.68.67,2.18,2.18,0,0,0-.23,1h-1.18a2.93,2.93,0,0,1,.42-1.57,2.83,2.83,0,0,1,1.12-1,3.42,3.42,0,0,1,1.61-.38,3.27,3.27,0,0,1,1.58.38,2.89,2.89,0,0,1,1.09,1,2.68,2.68,0,0,1,.39,1.42,3.19,3.19,0,0,1-.2,1.1,5.14,5.14,0,0,1-.7,1.19c-.33.43-.79,1-1.37,1.59l-2.29,2.45v.08h4.74v1.09Z"/><path d="M175.36,65.9a.89.89,0,0,1-.63-.26.91.91,0,0,1,0-1.27.89.89,0,0,1,.63-.26.86.86,0,0,1,.63.26.87.87,0,0,1,.27.64.76.76,0,0,1-.13.44.92.92,0,0,1-.32.33A.84.84,0,0,1,175.36,65.9Z"/><path d="M178.34,65.82v-.89l3.36-3.68c.4-.43.72-.81,1-1.13a4.72,4.72,0,0,0,.57-.9,2.3,2.3,0,0,0,.18-.9,1.6,1.6,0,0,0-1-1.53,2.28,2.28,0,0,0-1-.22,2,2,0,0,0-1,.25,1.66,1.66,0,0,0-.67.67,2.18,2.18,0,0,0-.23,1h-1.18a2.93,2.93,0,0,1,.42-1.57,2.83,2.83,0,0,1,1.12-1,3.4,3.4,0,0,1,1.6-.38,3.28,3.28,0,0,1,1.59.38,2.79,2.79,0,0,1,1.08,1,2.61,2.61,0,0,1,.4,1.42,3.19,3.19,0,0,1-.2,1.1,5.14,5.14,0,0,1-.7,1.19c-.33.43-.79,1-1.37,1.59L180,64.65v.08h4.74v1.09Z"/><rect class="cls-3" x="103.25" y="45.5" width="89.5" height="29.5" rx="1.72"/><rect class="cls-2" x="49.92" y="103.5" width="37.83" height="17.5"/><path d="M63.68,110.82H62.44a2.57,2.57,0,0,0-.38-.93,2.64,2.64,0,0,0-.65-.68,2.93,2.93,0,0,0-.85-.42,3.57,3.57,0,0,0-1-.14,3.09,3.09,0,0,0-1.67.47,3.18,3.18,0,0,0-1.19,1.38,5.87,5.87,0,0,0,0,4.46,3.18,3.18,0,0,0,1.19,1.38,3.09,3.09,0,0,0,1.67.47,3.57,3.57,0,0,0,1-.14,2.7,2.7,0,0,0,.85-.42,2.64,2.64,0,0,0,.65-.68,2.57,2.57,0,0,0,.38-.93h1.24a4.17,4.17,0,0,1-.51,1.4,3.65,3.65,0,0,1-.91,1,4.06,4.06,0,0,1-1.23.66,4.59,4.59,0,0,1-1.45.22,4.24,4.24,0,0,1-2.32-.64,4.34,4.34,0,0,1-1.59-1.81,7,7,0,0,1,0-5.56,4.34,4.34,0,0,1,1.59-1.81,4.24,4.24,0,0,1,2.32-.64,4.89,4.89,0,0,1,1.45.22,4.06,4.06,0,0,1,1.23.66,3.65,3.65,0,0,1,.91,1A4.17,4.17,0,0,1,63.68,110.82Z"/><path d="M73,107.64v10.18H71.77v-8.89h-.06l-2.48,1.65v-1.25l2.54-1.69Z"/><path d="M76.21,117.9a.9.9,0,1,1,.89-.89.83.83,0,0,1-.12.44.92.92,0,0,1-.32.33A.89.89,0,0,1,76.21,117.9Z"/><path d="M81.56,107.64v10.18H80.32v-8.89h-.06l-2.48,1.65v-1.25l2.54-1.69Z"/><rect class="cls-4" x="45.25" y="97.5" width="49" height="29.5" rx="1.72"/><line class="cls-5" x1="79.44" y1="20.36" x2="30.01" y2="49.84"/><polygon points="30.26 47.53 30.54 49.52 32.16 50.71 27.44 51.36 30.26 47.53"/><line class="cls-5" x1="70.75" y1="69.08" x2="70.75" y2="100.47"/><polygon points="68.9 99.07 70.75 99.85 72.6 99.07 70.75 103.46 68.9 99.07"/><line class="cls-5" x1="84.75" y1="20" x2="124.36" y2="49.72"/><polygon points="122.13 50.36 123.87 49.35 124.35 47.4 126.75 51.51 122.13 50.36"/><line class="cls-5" x1="107.31" y1="60" x2="87.8" y2="60"/><polygon points="89.2 58.15 88.42 60 89.2 61.85 84.81 60 89.2 58.15"/><rect class="cls-6" x="38.25" y="0.5" width="87" height="19.5" rx="8.8"/><path d="M46.89,5.68h1.26l3,7.24h.1l3-7.24h1.27v8.73h-1V7.78h-.09l-2.73,6.63h-1L48,7.78h-.08v6.63h-1Z"/><path d="M59.35,14.56a2.75,2.75,0,0,1-1.13-.23,2,2,0,0,1-.81-.69,2,2,0,0,1-.29-1.09,1.64,1.64,0,0,1,.22-.91,1.59,1.59,0,0,1,.59-.56,3.47,3.47,0,0,1,.82-.3c.3-.06.6-.12.91-.16l1-.11a1.65,1.65,0,0,0,.54-.14.35.35,0,0,0,.17-.34v0A1.34,1.34,0,0,0,61,9a1.4,1.4,0,0,0-1-.35,1.77,1.77,0,0,0-1.7,1l-1-.34A2.23,2.23,0,0,1,58,8.38a2.64,2.64,0,0,1,.93-.47,3.94,3.94,0,0,1,1-.13,4.14,4.14,0,0,1,.73.07,2.28,2.28,0,0,1,.79.31,1.72,1.72,0,0,1,.64.69,2.61,2.61,0,0,1,.26,1.25v4.31h-1v-.89h-.05A1.8,1.8,0,0,1,61,14a2,2,0,0,1-.63.41A2.55,2.55,0,0,1,59.35,14.56Zm.15-.9a2,2,0,0,0,1-.24,1.56,1.56,0,0,0,.62-.6,1.58,1.58,0,0,0,.21-.78v-.92a.55.55,0,0,1-.28.14,4.19,4.19,0,0,1-.49.1l-.54.08-.43.05a4.1,4.1,0,0,0-.73.17,1.23,1.23,0,0,0-.54.33.87.87,0,0,0-.21.61.9.9,0,0,0,.39.79A1.7,1.7,0,0,0,59.5,13.66Z"/><path d="M64.7,6.77a.72.72,0,0,1-.5-.2.65.65,0,0,1,0-1,.68.68,0,0,1,.5-.2.69.69,0,0,1,.51.2.65.65,0,0,1,0,1A.73.73,0,0,1,64.7,6.77Zm-.51,7.64V7.86h1v6.55Z"/><path d="M68,10.47v3.94H67V7.86h1v1h.08a2,2,0,0,1,.7-.81A2.21,2.21,0,0,1,70,7.78a2.43,2.43,0,0,1,1.17.27,1.81,1.81,0,0,1,.77.82,3,3,0,0,1,.28,1.38v4.16h-1V10.32a1.7,1.7,0,0,0-.4-1.21,1.45,1.45,0,0,0-1.1-.43,1.74,1.74,0,0,0-.86.21,1.45,1.45,0,0,0-.59.61A2,2,0,0,0,68,10.47Z"/><path d="M77.57,5.68h1.26l3,7.24h.1l3-7.24h1.26v8.73h-1V7.78h-.09l-2.72,6.63h-1L78.64,7.78h-.08v6.63h-1Z"/><path d="M90.76,14.54a2.76,2.76,0,0,1-2.59-1.6,3.91,3.91,0,0,1-.37-1.77,4,4,0,0,1,.37-1.79,2.92,2.92,0,0,1,1-1.18,2.83,2.83,0,0,1,1.55-.42,2.76,2.76,0,0,1,2.6,1.6,4.17,4.17,0,0,1,.37,1.79,4.05,4.05,0,0,1-.37,1.77,2.85,2.85,0,0,1-1,1.18A2.89,2.89,0,0,1,90.76,14.54Zm0-.9a1.73,1.73,0,0,0,1.11-.34,2,2,0,0,0,.64-.91,3.47,3.47,0,0,0,.21-1.22A3.43,3.43,0,0,0,92.51,10,2,2,0,0,0,91.87,9a1.73,1.73,0,0,0-1.11-.35,1.69,1.69,0,0,0-1.1.35A2.06,2.06,0,0,0,89,10a3.43,3.43,0,0,0-.21,1.22A3.47,3.47,0,0,0,89,12.39a2.09,2.09,0,0,0,.65.91A1.68,1.68,0,0,0,90.76,13.64Z"/><path d="M97.73,14.54a2.53,2.53,0,0,1-1.44-.41,2.8,2.8,0,0,1-1-1.18,4.13,4.13,0,0,1-.35-1.8,4.14,4.14,0,0,1,.35-1.79,2.83,2.83,0,0,1,1-1.17,2.57,2.57,0,0,1,1.46-.41,2,2,0,0,1,1,.21,1.73,1.73,0,0,1,.57.48,4.25,4.25,0,0,1,.31.43h.09V5.68h1v8.73h-1v-1h-.12c-.07.12-.18.27-.31.45a1.82,1.82,0,0,1-.59.48A2.05,2.05,0,0,1,97.73,14.54Zm.14-.9a1.58,1.58,0,0,0,1-.32,2,2,0,0,0,.64-.88,3.69,3.69,0,0,0,.22-1.3,3.42,3.42,0,0,0-.22-1.29A1.86,1.86,0,0,0,98.9,9a1.87,1.87,0,0,0-2.09,0,1.94,1.94,0,0,0-.64.88A3.49,3.49,0,0,0,96,11.14a3.4,3.4,0,0,0,.22,1.26,2,2,0,0,0,.64.91A1.65,1.65,0,0,0,97.87,13.64Z"/><path d="M106.84,11.73V7.86h1v6.55h-1V13.3h-.07a2.15,2.15,0,0,1-.72.85,2,2,0,0,1-1.22.34,2.21,2.21,0,0,1-1.1-.27,1.94,1.94,0,0,1-.75-.82,3.08,3.08,0,0,1-.27-1.38V7.86h1V12a1.61,1.61,0,0,0,.4,1.15,1.36,1.36,0,0,0,1,.42,1.74,1.74,0,0,0,1.42-.78A1.75,1.75,0,0,0,106.84,11.73Z"/><path d="M110.69,5.68v8.73h-1V5.68Z"/><path d="M115.27,14.54a3.07,3.07,0,0,1-1.63-.42,2.84,2.84,0,0,1-1-1.17,4.07,4.07,0,0,1-.37-1.76,4.16,4.16,0,0,1,.37-1.78,3,3,0,0,1,1-1.2,2.76,2.76,0,0,1,1.55-.43,2.94,2.94,0,0,1,1,.17,2.53,2.53,0,0,1,.91.55,2.63,2.63,0,0,1,.65,1,4.29,4.29,0,0,1,.24,1.54v.43h-5v-.87h4a2.12,2.12,0,0,0-.22-1,1.65,1.65,0,0,0-.62-.69,1.73,1.73,0,0,0-1-.25,1.82,1.82,0,0,0-1,.3,1.93,1.93,0,0,0-.67.77,2.3,2.3,0,0,0-.23,1v.58a2.66,2.66,0,0,0,.26,1.25,1.71,1.71,0,0,0,.72.78,2,2,0,0,0,1.06.27,2.27,2.27,0,0,0,.72-.11,1.59,1.59,0,0,0,.56-.34,1.39,1.39,0,0,0,.36-.57l1,.27a2.13,2.13,0,0,1-.51.87,2.45,2.45,0,0,1-.9.58A3.21,3.21,0,0,1,115.27,14.54Z"/></g></g></svg>